<svg width="35" height="35" viewBox="0 0 35 35" fill="none" xmlns="http://www.w3.org/2000/svg">
<path fill-rule="evenodd" clip-rule="evenodd" d="M17.1725 33.1289C25.6231 33.1289 32.4737 26.2783 32.4737 17.8276C32.4737 9.37694 25.6231 2.52631 17.1725 2.52631C8.72178 2.52631 1.87116 9.37694 1.87116 17.8276C1.87116 26.2783 8.72178 33.1289 17.1725 33.1289ZM17.1725 35.0001C26.6565 35.0001 34.3449 27.3117 34.3449 17.8276C34.3449 8.34352 26.6565 0.655151 17.1725 0.655151C7.68837 0.655151 0 8.34352 0 17.8276C0 27.3117 7.68837 35.0001 17.1725 35.0001Z" fill="#135AE4"/>
<path fill-rule="evenodd" clip-rule="evenodd" d="M19.3385 20.7117H6.33984L14.2762 11.9851C16.8881 9.11308 20.5902 7.47583 24.4723 7.47583L19.3463 20.7116H26.6924L22.2027 25.6577C20.7276 27.2827 18.635 28.2094 16.4403 28.2094L19.3385 20.7117Z" fill="#135AE4"/>
</svg>
